<svg width="52" height="31" viewBox="0 0 52 31" fill="none" xmlns="http://www.w3.org/2000/svg">
<path d="M26.9982 30.19C28.913 29.8719 30.6503 28.8775 31.8943 27.3876C33.1384 25.8976 33.8068 24.0109 33.7782 22.07V1.58C31.1823 0.806892 28.4868 0.41942 25.7782 0.43V0.43C23.0705 0.422581 20.376 0.806551 17.7782 1.57V22.32C17.7835 23.4707 18.0368 24.6066 18.5211 25.6504C19.0054 26.6942 19.7091 27.6213 20.5843 28.3683C21.4595 29.1154 22.4855 29.6648 23.5924 29.9792C24.6993 30.2936 25.861 30.3655 26.9982 30.19Z" fill="#7367F0"/>
<path d="M43.3082 30.22C43.7626 30.2764 44.221 30.2931 44.6782 30.27C45.7616 30.208 46.8187 29.9119 47.7767 29.4021C48.7347 28.8924 49.5709 28.181 50.2276 27.3171C50.8843 26.4532 51.346 25.4572 51.5809 24.3978C51.8158 23.3383 51.8183 22.2405 51.5882 21.18C50.8333 17.0287 49.0399 13.136 46.3751 9.86447C43.7104 6.59298 40.261 4.04917 36.3482 2.47V2.47V22.05C36.3201 24.0243 37.0106 25.9415 38.291 27.4445C39.5714 28.9476 41.3545 29.934 43.3082 30.22V30.22Z" fill="#FEA044"/>
<path d="M8.39821 30.22C10.3617 29.9404 12.1559 28.9543 13.4445 27.4466C14.7331 25.939 15.4278 24.0131 15.3982 22.03V2.49C11.4901 4.05655 8.04269 6.58775 5.37767 9.84733C2.71265 13.1069 0.916961 16.9886 0.158209 21.13C-0.791791 26.13 2.63821 30.45 7.71821 30.27C7.94571 30.2679 8.17285 30.2512 8.39821 30.22V30.22Z" fill="#00CFE7"/>
</svg>
