<svg width="202" height="41" viewBox="0 0 202 41" fill="none" xmlns="http://www.w3.org/2000/svg">
<path d="M12.3282 15C12.3282 13.59 11.3282 13.15 10.0882 13.15C8.84821 13.15 7.99821 13.86 7.99821 14.79C7.99821 16.11 9.18821 16.79 12.5682 17.65C18.3782 19.19 20.2782 21.52 20.2782 25.09C20.2782 30.19 15.8782 33.4 10.2782 33.4C4.67821 33.4 0.858213 30.28 0.278214 25.31H7.54822C7.61876 25.9743 7.95015 26.5833 8.46956 27.0034C8.98897 27.4234 9.6539 27.62 10.3182 27.55C11.5882 27.55 12.8682 26.8 12.8682 25.66C12.8682 24.29 12.0282 23.59 8.37821 22.45C2.21821 20.55 0.588211 18.13 0.588211 15.27C0.588211 10.43 5.11822 7.27 10.0482 7.27C15.3382 7.27 19.0482 10.17 19.4282 14.97L12.3282 15Z" fill="#7368F1"/>
<path d="M39.3082 32.57V19.14C39.3082 15.98 38.0782 14.14 35.3982 14.14C32.7182 14.14 31.2982 15.77 31.2982 18.81V32.57H23.9982V0H31.2982V10.47C32.3582 8.47 34.7382 7.31 37.6382 7.31C43.2282 7.31 46.6382 10.83 46.6382 17.21V32.57H39.3082Z" fill="#7368F1"/>
<path d="M63.9182 33.32C62.1895 33.3717 60.4684 33.072 58.8589 32.439C57.2494 31.8061 55.7852 30.853 54.5548 29.6376C53.3245 28.4222 52.3536 26.9698 51.701 25.3682C51.0484 23.7666 50.7277 22.0492 50.7582 20.32C50.7476 16.8298 52.1239 13.4782 54.5844 11.0028C57.0449 8.52728 60.388 7.13061 63.8782 7.12C67.3685 7.10939 70.72 8.48571 73.1955 10.9462C75.6709 13.4067 77.0676 16.7498 77.0782 20.24C77.1169 21.9751 76.8023 23.6999 76.1536 25.3096C75.5049 26.9193 74.5356 28.3802 73.3047 29.6037C72.0738 30.8271 70.607 31.7874 68.9933 32.4263C67.3797 33.0652 65.653 33.3692 63.9182 33.32V33.32ZM69.7682 20.32C69.8008 19.5308 69.6736 18.7431 69.394 18.0042C69.1145 17.2654 68.6885 16.5908 68.1416 16.0208C67.5947 15.4508 66.9382 14.9973 66.2115 14.6875C65.4849 14.3777 64.7031 14.218 63.9132 14.218C63.1233 14.218 62.3415 14.3777 61.6149 14.6875C60.8883 14.9973 60.2318 15.4508 59.6849 16.0208C59.138 16.5908 58.7119 17.2654 58.4324 18.0042C58.1529 18.7431 58.0256 19.5308 58.0582 20.32C58.0256 21.1092 58.1529 21.8969 58.4324 22.6357C58.7119 23.3746 59.138 24.0492 59.6849 24.6192C60.2318 25.1892 60.8883 25.6427 61.6149 25.9525C62.3415 26.2623 63.1233 26.422 63.9132 26.422C64.7031 26.422 65.4849 26.2623 66.2115 25.9525C66.9382 25.6427 67.5947 25.1892 68.1416 24.6192C68.6885 24.0492 69.1145 23.3746 69.394 22.6357C69.6736 21.8969 69.8008 21.1092 69.7682 20.32Z" fill="#7368F1"/>
<path d="M81.2982 40.71V8.14H88.1682V10.83H88.2982C89.2175 9.68251 90.3928 8.7664 91.73 8.15511C93.0672 7.54383 94.529 7.25439 95.9982 7.31C102.948 7.31 107.878 12.98 107.878 20.6C107.878 27.6 102.998 33.4 95.9982 33.4C94.6292 33.4596 93.2635 33.2224 91.9948 32.7046C90.7261 32.1867 89.5845 31.4006 88.6482 30.4V40.71H81.2982ZM100.538 20.38C100.538 18.7569 99.8934 17.2002 98.7457 16.0525C97.598 14.9048 96.0413 14.26 94.4182 14.26C92.7951 14.26 91.2385 14.9048 90.0907 16.0525C88.943 17.2002 88.2982 18.7569 88.2982 20.38C88.2982 22.0031 88.943 23.5598 90.0907 24.7075C91.2385 25.8552 92.7951 26.5 94.4182 26.5C96.0413 26.5 97.598 25.8552 98.7457 24.7075C99.8934 23.5598 100.538 22.0031 100.538 20.38Z" fill="#7368F1"/>
<path d="M122.448 15C122.448 13.59 121.448 13.15 120.208 13.15C118.968 13.15 118.098 13.85 118.098 14.78C118.098 16.1 119.278 16.78 122.668 17.64C128.478 19.18 130.378 21.51 130.378 25.08C130.378 30.18 125.968 33.39 120.428 33.39C114.888 33.39 111.008 30.27 110.428 25.3H117.688C117.723 25.6298 117.823 25.9496 117.981 26.2408C118.14 26.5321 118.355 26.7891 118.613 26.9972C118.871 27.2053 119.168 27.3604 119.487 27.4535C119.805 27.5467 120.138 27.5761 120.468 27.54C121.738 27.54 123.018 26.79 123.018 25.65C123.018 24.28 122.178 23.58 118.528 22.44C112.368 20.54 110.738 18.12 110.738 15.26C110.738 10.42 115.268 7.26 120.198 7.26C125.478 7.26 129.198 10.16 129.578 14.96L122.448 15Z" fill="#7368F1"/>
<path d="M134.118 5.55V0H141.418V5.55H134.118ZM134.118 32.55V8.14H141.418V32.57L134.118 32.55Z" fill="#7368F1"/>
<path d="M165.278 32.57V29.93H165.188C163.658 32.44 160.758 33.63 156.598 33.31C154.238 33.1416 151.987 32.2552 150.146 30.7697C148.304 29.2842 146.962 27.2708 146.298 25C143.698 15.59 149.158 7.35 157.748 7.35C159.082 7.3021 160.41 7.53558 161.647 8.03524C162.884 8.5349 164.002 9.28954 164.928 10.25V0H172.228V32.57H165.278ZM165.278 20.25C165.214 18.6527 164.534 17.1421 163.381 16.0347C162.228 14.9272 160.692 14.3087 159.093 14.3087C157.495 14.3087 155.958 14.9272 154.805 16.0347C153.652 17.1421 152.972 18.6527 152.908 20.25C152.868 21.0722 152.998 21.8938 153.289 22.6638C153.58 23.4337 154.027 24.1355 154.601 24.7255C155.175 25.3155 155.864 25.781 156.626 26.0932C157.387 26.4053 158.205 26.5574 159.028 26.54C159.861 26.5635 160.689 26.4168 161.463 26.109C162.237 25.8012 162.939 25.3387 163.528 24.7499C164.117 24.1611 164.579 23.4583 164.887 22.6846C165.195 21.9108 165.342 21.0824 165.318 20.25H165.278Z" fill="#7368F1"/>
<path d="M183.498 22.58C183.705 23.9241 184.406 25.1427 185.464 25.9972C186.522 26.8516 187.861 27.2806 189.218 27.2C190.093 27.2281 190.961 27.0326 191.74 26.6319C192.519 26.2312 193.182 25.6386 193.668 24.91H201.148C198.808 30.24 194.368 33.36 189.218 33.36C187.511 33.3685 185.819 33.0407 184.238 32.3953C182.658 31.7499 181.22 30.7995 180.007 29.5984C177.557 27.1726 176.17 23.8728 176.153 20.425C176.136 16.9772 177.489 13.6637 179.915 11.2136C182.341 8.76341 185.64 7.37724 189.088 7.36C196.388 7.36 201.978 13.12 201.978 20.69C201.988 21.3408 201.931 21.9909 201.808 22.63L183.498 22.58ZM194.678 17.65C194.332 16.4468 193.604 15.3889 192.604 14.6358C191.603 13.8828 190.385 13.4756 189.133 13.4756C187.881 13.4756 186.663 13.8828 185.663 14.6358C184.663 15.3889 183.934 16.4468 183.588 17.65H194.678Z" fill="#7368F1"/>
</svg>
